<?xml version="1.0" encoding="utf-8"?>
<!-- Generator: Adobe Illustrator 16.0.0, SVG Export Plug-In . SVG Version: 6.00 Build 0)  -->
<!DOCTYPE svg PUBLIC "-//W3C//DTD SVG 1.1//EN" "http://www.w3.org/Graphics/SVG/1.1/DTD/svg11.dtd">
<svg version="1.1" id="Layer_1" xmlns="http://www.w3.org/2000/svg" xmlns:xlink="http://www.w3.org/1999/xlink" x="0px" y="0px"
	 width="100px" height="100px" viewBox="0 0 100 100" enable-background="new 0 0 100 100" xml:space="preserve">
<symbol  id="New_Symbol_69" viewBox="-8 -8 16 16">
	<path fill="#666666" d="M5-2v2v1H1v1h3v1v5h-6h-1V2h3V1h-5V0v-2h-2h-1v-6h7v1v5h-3v2h8v-2H2H1v-6h7v1v5H5z M-2-3v-1h-5v1H-2z M-2,6
		v1h5V6H-2z M7-4H2v1h5V-4z"/>
</symbol>
<g>
	
		<polygon fill-rule="evenodd" clip-rule="evenodd" fill="none" stroke="#231F20" stroke-width="0.5" stroke-miterlimit="10" points="
		49.999,99.635 99.646,50.001 49.999,0.365 0.354,50.001 	"/>
	
		<polygon fill-rule="evenodd" clip-rule="evenodd" fill="none" stroke="#231F20" stroke-width="0.25" stroke-miterlimit="10" points="
		50.4,92.438 92.847,50.001 50.4,7.563 7.952,50.001 	"/>
	
		<use xlink:href="#New_Symbol_69"  width="16" height="16" id="XMLID_2_" x="-8" y="-8" transform="matrix(1.5625 0 0 -1.5621 50 50)" overflow="visible"/>
</g>
<g>
</g>
<g>
</g>
<g>
</g>
<g>
</g>
<g>
</g>
<g>
</g>
<g>
</g>
<g>
</g>
<g>
</g>
<g>
</g>
<g>
</g>
<g>
</g>
<g>
</g>
<g>
</g>
<g>
</g>
<g>
</g>
<g>
</g>
<g>
</g>
</svg>
