<?xml version="1.0" encoding="utf-8"?>
<!-- Generator: Adobe Illustrator 16.0.0, SVG Export Plug-In . SVG Version: 6.00 Build 0)  -->
<!DOCTYPE svg PUBLIC "-//W3C//DTD SVG 1.1//EN" "http://www.w3.org/Graphics/SVG/1.1/DTD/svg11.dtd">
<svg version="1.1" id="Layer_1" xmlns="http://www.w3.org/2000/svg" xmlns:xlink="http://www.w3.org/1999/xlink" x="0px" y="0px"
	 width="100px" height="100px" viewBox="0 0 100 100" enable-background="new 0 0 100 100" xml:space="preserve">
<symbol  id="New_Symbol_116" viewBox="-8 -8 16 16">
	<path fill="#666666" d="M7,8H-8V4V-8H8V8H7z M-2,6h1V5h-1V6z M-4,6h1V5h-1V6z M-6,6h1V5h-1V6z M6-6H-6V4H6V-6z"/>
	<polygon fill="#666666" points="5,1 -2,1 -2,2 5,2 	"/>
	<polygon fill="#666666" points="-3.25,1 -4.75,1 -4.75,2 -3.25,2 	"/>
	<polygon fill="#666666" points="5,-1 -2,-1 -2,0 5,0 	"/>
	<polygon fill="#666666" points="-3.25,-1 -4.75,-1 -4.75,0 -3.25,0 	"/>
	<polygon fill="#666666" points="5,-3 -2,-3 -2,-2 5,-2 	"/>
	<polygon fill="#666666" points="-3.25,-3 -4.75,-3 -4.75,-2 -3.25,-2 	"/>
</symbol>
<g>
	
		<polygon fill-rule="evenodd" clip-rule="evenodd" fill="none" stroke="#231F20" stroke-width="0.5" stroke-miterlimit="10" points="
		49.999,99.635 99.646,50.001 49.999,0.365 0.354,50.001 	"/>
	
		<polygon fill-rule="evenodd" clip-rule="evenodd" fill="none" stroke="#231F20" stroke-width="0.25" stroke-miterlimit="10" points="
		50.399,92.438 92.848,50.001 50.399,7.563 7.952,50.001 	"/>
	
		<use xlink:href="#New_Symbol_116"  width="16" height="16" id="XMLID_4_" x="-8" y="-8" transform="matrix(1.5625 0 0 -1.5621 50 50.001)" overflow="visible"/>
</g>
<g>
</g>
<g>
</g>
<g>
</g>
<g>
</g>
<g>
</g>
<g>
</g>
<g>
</g>
<g>
</g>
<g>
</g>
<g>
</g>
<g>
</g>
<g>
</g>
<g>
</g>
<g>
</g>
<g>
</g>
<g>
</g>
<g>
</g>
<g>
</g>
</svg>
