<?xml version="1.0" encoding="utf-8"?>
<!-- Generator: Adobe Illustrator 16.0.0, SVG Export Plug-In . SVG Version: 6.00 Build 0)  -->
<!DOCTYPE svg PUBLIC "-//W3C//DTD SVG 1.1//EN" "http://www.w3.org/Graphics/SVG/1.1/DTD/svg11.dtd">
<svg version="1.1" id="Layer_1" xmlns="http://www.w3.org/2000/svg" xmlns:xlink="http://www.w3.org/1999/xlink" x="0px" y="0px"
	 width="100px" height="100px" viewBox="0 0 100 100" enable-background="new 0 0 100 100" xml:space="preserve">
<symbol  id="New_Symbol_115" viewBox="-8 -8 16 16">
	<path fill="#666666" d="M7,8H-8V4V-8H8V8H7z M-2,6h1V5h-1V6z M-4,6h1V5h-1V6z M-6,6h1V5h-1V6z M6-6H-6V4H6V-6z"/>
	<g>
		<polygon fill="#666666" points="-3.646,-2.354 -4.354,-1.646 -2.707,0 -4.354,1.646 -3.646,2.354 -1.293,0 		"/>
	</g>
	<polygon fill="#666666" points="3,0 0,0 0,1 3,1 	"/>
</symbol>
<g>
	
		<polygon fill-rule="evenodd" clip-rule="evenodd" fill="none" stroke="#231F20" stroke-width="0.5" stroke-miterlimit="10" points="
		49.999,99.642 99.646,50.001 49.999,0.358 0.354,50.001 	"/>
	
		<polygon fill-rule="evenodd" clip-rule="evenodd" fill="none" stroke="#231F20" stroke-width="0.25" stroke-miterlimit="10" points="
		50.4,92.444 92.848,50.001 50.4,7.558 7.952,50.001 	"/>
	
		<use xlink:href="#New_Symbol_115"  width="16" height="16" id="XMLID_5_" x="-8" y="-8" transform="matrix(1.5625 0 0 -1.5623 50 50)" overflow="visible"/>
</g>
<g>
</g>
<g>
</g>
<g>
</g>
<g>
</g>
<g>
</g>
<g>
</g>
<g>
</g>
<g>
</g>
<g>
</g>
<g>
</g>
<g>
</g>
<g>
</g>
<g>
</g>
<g>
</g>
<g>
</g>
<g>
</g>
<g>
</g>
<g>
</g>
</svg>
