<?xml version="1.0" encoding="utf-8"?>
<!-- Generator: Adobe Illustrator 16.0.0, SVG Export Plug-In . SVG Version: 6.00 Build 0)  -->
<!DOCTYPE svg PUBLIC "-//W3C//DTD SVG 1.1//EN" "http://www.w3.org/Graphics/SVG/1.1/DTD/svg11.dtd">
<svg version="1.1" id="Layer_1" xmlns="http://www.w3.org/2000/svg" xmlns:xlink="http://www.w3.org/1999/xlink" x="0px" y="0px"
	 width="220px" height="220px" viewBox="0 0 220 220" enable-background="new 0 0 220 220" xml:space="preserve">
<g>
	
		<rect x="32.467" y="32.468" transform="matrix(-0.7071 0.7071 -0.7071 -0.7071 265.5618 110.0017)" fill-rule="evenodd" clip-rule="evenodd" fill="none" stroke="#231F20" stroke-width="0.5" stroke-miterlimit="10" width="155.064" height="155.065"/>
	
		<rect x="44.892" y="44.012" transform="matrix(-0.7071 0.7071 -0.7071 -0.7071 267.0696 109.3777)" fill-rule="evenodd" clip-rule="evenodd" fill="#FF7373" stroke="#231F20" stroke-width="0.25" stroke-miterlimit="10" width="131.979" height="131.979"/>
	<g>
		<rect x="56.436" y="94.061" fill-rule="evenodd" clip-rule="evenodd" fill="none" width="118.689" height="30.665"/>
		<path fill="#F9F9F9" d="M57.397,122.811v-5.75h11.448v-5.75H57.397v-17.25h17.171v5.75H63.121v5.75h11.448v17.25H57.397z"/>
		<path fill="#F9F9F9" d="M78.003,122.811v-28.75h5.724v23h5.724v-11.5h5.724v11.5h5.724v-23h5.724v28.75H78.003z"/>
		<path fill="#F9F9F9" d="M110.057,122.811v-28.75h17.172v5.75H115.78v5.75h5.724v5.75h-5.724v5.75h11.448v5.75H110.057z"/>
		<path fill="#F9F9F9" d="M130.663,122.811v-28.75h17.172v5.75h-11.448v5.75h5.724v5.75h-5.724v5.75h11.448v5.75H130.663z"/>
		<path fill="#F9F9F9" d="M156.992,122.811v-23h-5.724v-5.75h17.172v5.75h-5.725v23H156.992z"/>
	</g>
	<g>
		<rect x="70.698" y="66.937" fill-rule="evenodd" clip-rule="evenodd" fill="none" width="84.336" height="21.591"/>
		<path fill="#F9F9F9" d="M86.918,79.173v6.916c0,0.28-0.083,0.42-0.39,0.42h-1.171c-0.279,0-0.39-0.14-0.39-0.42v-18.2
			c0-0.28,0.111-0.42,0.362-0.42h5.52c4.628,0,6.05,1.848,6.05,4.088v3.5c0,2.24-1.422,4.116-6.05,4.116H86.918z M86.918,69.177
			v8.288h3.931c2.983,0,4.07-1.092,4.07-2.716v-2.884c0-1.624-1.087-2.688-4.07-2.688H86.918z"/>
		<path fill="#F9F9F9" d="M101.301,86.089c0,0.28-0.083,0.42-0.39,0.42H99.74c-0.279,0-0.39-0.14-0.39-0.42v-18.2
			c0-0.28,0.111-0.42,0.39-0.42h1.171c0.307,0,0.39,0.14,0.39,0.42V86.089z"/>
		<path fill="#F9F9F9" d="M116.633,86.089c0.14,0.224,0.084,0.42-0.224,0.42h-1.365c-0.307,0-0.475-0.196-0.613-0.42l-4.433-7.504
			l-4.293,7.504c-0.139,0.224-0.279,0.42-0.585,0.42h-1.31c-0.279,0-0.335-0.224-0.195-0.476l5.353-9.24l-5.213-8.876
			c-0.139-0.224-0.111-0.448,0.167-0.448h1.394c0.307,0,0.474,0.196,0.613,0.42l4.293,7.252l4.098-7.252
			c0.14-0.252,0.307-0.42,0.586-0.42h1.282c0.279,0,0.335,0.168,0.195,0.42l-5.186,8.96L116.633,86.089z"/>
		<path fill="#F9F9F9" d="M119.334,86.509c-0.251,0-0.362-0.14-0.362-0.42v-18.2c0-0.28,0.111-0.42,0.39-0.42h9.507
			c0.278,0,0.418,0.112,0.418,0.42v0.868c0,0.308-0.14,0.42-0.418,0.42h-7.945v6.524h7.443c0.307,0,0.418,0.112,0.418,0.42v0.812
			c0,0.308-0.111,0.42-0.418,0.42h-7.443v7.448h8.279c0.279,0,0.419,0.112,0.419,0.392v0.896c0,0.308-0.14,0.42-0.419,0.42H119.334z
			"/>
		<path fill="#F9F9F9" d="M134.162,84.801h7.806c0.278,0,0.39,0.112,0.39,0.392v0.896c0,0.308-0.111,0.42-0.39,0.42h-9.451
			c-0.223,0-0.334-0.14-0.334-0.42v-18.2c0-0.28,0.111-0.42,0.39-0.42h1.199c0.278,0,0.391,0.14,0.391,0.42V84.801z"/>
	</g>
	<g>
		<rect x="70.698" y="129.402" fill-rule="evenodd" clip-rule="evenodd" fill="none" width="84.336" height="21.591"/>
		<path fill="#F9F9F9" d="M86.918,141.639v6.916c0,0.279-0.083,0.42-0.39,0.42h-1.171c-0.279,0-0.39-0.141-0.39-0.42v-18.201
			c0-0.279,0.111-0.42,0.362-0.42h5.52c4.628,0,6.05,1.849,6.05,4.088v3.5c0,2.24-1.422,4.117-6.05,4.117H86.918z M86.918,131.643
			v8.287h3.931c2.983,0,4.07-1.092,4.07-2.715v-2.885c0-1.624-1.087-2.688-4.07-2.688H86.918z"/>
		<path fill="#F9F9F9" d="M101.301,148.555c0,0.279-0.083,0.42-0.39,0.42H99.74c-0.279,0-0.39-0.141-0.39-0.42v-18.201
			c0-0.279,0.111-0.42,0.39-0.42h1.171c0.307,0,0.39,0.141,0.39,0.42V148.555z"/>
		<path fill="#F9F9F9" d="M116.633,148.555c0.14,0.224,0.084,0.42-0.224,0.42h-1.365c-0.307,0-0.475-0.196-0.613-0.42l-4.433-7.504
			l-4.293,7.504c-0.139,0.224-0.279,0.42-0.585,0.42h-1.31c-0.279,0-0.335-0.225-0.195-0.477l5.353-9.24l-5.213-8.875
			c-0.139-0.225-0.111-0.449,0.167-0.449h1.394c0.307,0,0.474,0.197,0.613,0.42l4.293,7.252l4.098-7.252
			c0.14-0.252,0.307-0.42,0.586-0.42h1.282c0.279,0,0.335,0.168,0.195,0.42l-5.186,8.961L116.633,148.555z"/>
		<path fill="#F9F9F9" d="M119.334,148.975c-0.251,0-0.362-0.141-0.362-0.42v-18.201c0-0.279,0.111-0.42,0.39-0.42h9.507
			c0.278,0,0.418,0.113,0.418,0.42v0.869c0,0.308-0.14,0.42-0.418,0.42h-7.945v6.523h7.443c0.307,0,0.418,0.112,0.418,0.42v0.812
			c0,0.308-0.111,0.42-0.418,0.42h-7.443v7.447h8.279c0.279,0,0.419,0.112,0.419,0.393v0.896c0,0.308-0.14,0.42-0.419,0.42H119.334z
			"/>
		<path fill="#F9F9F9" d="M134.162,147.266h7.806c0.278,0,0.39,0.112,0.39,0.393v0.896c0,0.308-0.111,0.42-0.39,0.42h-9.451
			c-0.223,0-0.334-0.141-0.334-0.42v-18.201c0-0.279,0.111-0.42,0.39-0.42h1.199c0.278,0,0.391,0.141,0.391,0.42V147.266z"/>
	</g>
</g>
<g>
</g>
<g>
</g>
<g>
</g>
<g>
</g>
<g>
</g>
<g>
</g>
<g>
</g>
<g>
</g>
<g>
</g>
<g>
</g>
<g>
</g>
<g>
</g>
<g>
</g>
<g>
</g>
<g>
</g>
</svg>
