<?xml version="1.0" encoding="utf-8"?>
<!-- Generator: Adobe Illustrator 16.0.0, SVG Export Plug-In . SVG Version: 6.00 Build 0)  -->
<!DOCTYPE svg PUBLIC "-//W3C//DTD SVG 1.1//EN" "http://www.w3.org/Graphics/SVG/1.1/DTD/svg11.dtd">
<svg version="1.1" id="Layer_1" xmlns="http://www.w3.org/2000/svg" xmlns:xlink="http://www.w3.org/1999/xlink" x="0px" y="0px"
	 width="25px" height="25px" viewBox="0 0 25 25" enable-background="new 0 0 25 25" xml:space="preserve">
<symbol  id="New_Symbol_11" viewBox="-7.727 -7.551 15.453 15.102">
	<path fill="#666666" d="M7.287-4.99L4.433-2.136c0.533,0.942,0.841,2.028,0.841,3.187c0,3.584-2.916,6.5-6.5,6.5
		s-6.5-2.916-6.5-6.5s2.916-6.5,6.5-6.5c1.341,0,2.588,0.408,3.623,1.107l2.769-2.77c0.293-0.293,0.677-0.439,1.061-0.439
		s0.768,0.146,1.061,0.439C7.873-6.525,7.873-5.576,7.287-4.99z M-5.727,1.051c0,2.481,2.019,4.5,4.5,4.5c2.482,0,4.5-2.019,4.5-4.5
		c0-2.48-2.018-4.5-4.5-4.5C-3.708-3.449-5.727-1.43-5.727,1.051z"/>
	<polygon fill="#666666" points="1.996,2.051 -0.004,2.051 -0.004,4.051 -2.004,4.051 -2.004,2.051 -4.004,2.051 -4.004,0.051 
		-2.004,0.051 -2.004,-1.949 -0.004,-1.949 -0.004,0.051 1.996,0.051 	"/>
</symbol>
<g id="Layer_1">
	<g>
		<g id="XMLID_10_">
			
				<use xlink:href="#New_Symbol_11"  width="15.453" height="15.102" x="-7.727" y="-7.551" transform="matrix(1.6017 0 0 -1.6389 12.5 12.5)" overflow="visible"/>
			<g>
				<path fill="#F9F9F9" d="M24.172,20.679L19.6,16c0.854-1.544,1.347-3.324,1.347-5.222c0-5.874-4.671-10.653-10.411-10.653
					c-5.741,0-10.411,4.779-10.411,10.653c0,5.874,4.67,10.653,10.411,10.653c2.147,0,4.145-0.669,5.802-1.814l4.436,4.539
					c0.47,0.479,1.085,0.72,1.699,0.72c0.615,0,1.229-0.24,1.699-0.72C25.109,23.194,25.109,21.639,24.172,20.679z M3.328,10.778
					c0-4.067,3.234-7.375,7.208-7.375c3.976,0,7.208,3.308,7.208,7.375c0,4.065-3.231,7.375-7.208,7.375
					C6.562,18.153,3.328,14.843,3.328,10.778z"/>
				<polygon fill="#F9F9F9" points="15.697,9.139 12.494,9.139 12.494,5.861 9.291,5.861 9.291,9.139 6.087,9.139 6.087,12.417 
					9.291,12.417 9.291,15.694 12.494,15.694 12.494,12.417 15.697,12.417 				"/>
			</g>
			<g>
				<path fill="none" stroke="#F9F9F9" stroke-width="0.25" stroke-miterlimit="10" d="M24.172,20.679L19.6,16
					c0.854-1.544,1.347-3.324,1.347-5.222c0-5.874-4.671-10.653-10.411-10.653c-5.741,0-10.411,4.779-10.411,10.653
					c0,5.874,4.67,10.653,10.411,10.653c2.147,0,4.145-0.669,5.802-1.814l4.436,4.539c0.47,0.479,1.085,0.72,1.699,0.72
					c0.615,0,1.229-0.24,1.699-0.72C25.109,23.194,25.109,21.639,24.172,20.679z M3.328,10.778c0-4.067,3.234-7.375,7.208-7.375
					c3.976,0,7.208,3.308,7.208,7.375c0,4.065-3.231,7.375-7.208,7.375C6.562,18.153,3.328,14.843,3.328,10.778z"/>
				<polygon fill="none" stroke="#F9F9F9" stroke-width="0.25" stroke-miterlimit="10" points="15.697,9.139 12.494,9.139 
					12.494,5.861 9.291,5.861 9.291,9.139 6.087,9.139 6.087,12.417 9.291,12.417 9.291,15.694 12.494,15.694 12.494,12.417 
					15.697,12.417 				"/>
			</g>
		</g>
	</g>
</g>
</svg>
